<svg width="30" height="16" viewBox="0 0 30 16" fill="none" xmlns="http://www.w3.org/2000/svg">
<path d="M14.2744 5.56251C14.0023 5.2904 14.0023 4.85607 14.2744 4.58396C14.5413 4.31186 14.9808 4.31186 15.2529 4.58396L17.5345 6.87072L19.8212 4.58396C20.0934 4.31186 20.5277 4.31186 20.7998 4.58396C21.0719 4.85607 21.0719 5.2904 20.7998 5.56251L18.5183 7.84927L20.7998 10.1308C21.0719 10.4029 21.0719 10.8372 20.7998 11.1093C20.5277 11.3815 20.0934 11.3815 19.8212 11.1093L17.5345 8.82781L15.2529 11.1093C14.9808 11.3815 14.5413 11.3815 14.2744 11.1093C14.0023 10.8372 14.0023 10.4029 14.2744 10.1308L16.5559 7.84927L14.2744 5.56251Z" fill="#AE9FBF"/>
<path fill-rule="evenodd" clip-rule="evenodd" d="M11.4177 0.811103L4.38477 7.84407L11.4177 14.877C11.9358 15.3951 12.6422 15.6881 13.3748 15.6881H22.8463C24.3743 15.6881 25.6145 14.4479 25.6145 12.9199V2.76819C25.6145 1.24019 24.3743 0 22.8463 0H13.3748C12.6422 0 11.9358 0.29305 11.4177 0.811103ZM22.8463 14.495H13.3748C12.9614 14.495 12.5637 14.3276 12.2655 14.0345L6.08021 7.84929L12.2655 1.66405C12.5637 1.37101 12.9614 1.20357 13.3748 1.20357H22.8463C23.7097 1.20357 24.4161 1.90477 24.4161 2.77343V12.9252C24.4161 13.7938 23.7097 14.495 22.8463 14.495Z" fill="#AE9FBF"/>
</svg>
