<svg width="32" height="31" viewBox="0 0 32 31" fill="none" xmlns="http://www.w3.org/2000/svg">
<g filter="url(#filter0_in_746_1034)">
<path d="M18.6672 1.66301C17.7359 -0.554418 14.4792 -0.554313 13.5124 1.66318L10.5936 8.35748C10.1547 9.364 9.13181 10.0207 8.00274 10.0207H2.81672C0.335569 10.0207 -0.933113 12.9112 0.803772 14.607L4.98504 18.6892C5.61373 19.303 5.89501 20.1736 5.74068 21.0279L4.5062 27.8621C4.10739 30.0699 6.51312 31.7341 8.56228 30.668L14.5529 27.5512C15.385 27.1183 16.3841 27.1183 17.2092 27.5511L23.1509 30.6683C25.1829 31.7343 27.6153 30.0701 27.2521 27.8623L26.1276 21.0279C25.9871 20.1736 26.2824 19.303 26.921 18.6892L31.168 14.607C32.9322 12.9112 31.71 10.0207 29.2289 10.0207H24.0427C22.9137 10.0207 21.9015 9.36407 21.4788 8.35764L18.6672 1.66301Z" fill="url(#paint0_linear_746_1034)"/>
</g>
<defs>
<filter id="filter0_in_746_1034" x="0" y="0" width="32.002" height="33.999" filterUnits="userSpaceOnUse" color-interpolation-filters="sRGB">
<feFlood flood-opacity="0" result="BackgroundImageFix"/>
<feBlend mode="normal" in="SourceGraphic" in2="BackgroundImageFix" result="shape"/>
<feColorMatrix in="SourceAlpha" type="matrix" values="0 0 0 0 0 0 0 0 0 0 0 0 0 0 0 0 0 0 127 0" result="hardAlpha"/>
<feOffset dy="3"/>
<feGaussianBlur stdDeviation="2"/>
<feComposite in2="hardAlpha" operator="arithmetic" k2="-1" k3="1"/>
<feColorMatrix type="matrix" values="0 0 0 0 1 0 0 0 0 1 0 0 0 0 1 0 0 0 0.6 0"/>
<feBlend mode="normal" in2="shape" result="effect1_innerShadow_746_1034"/>
<feTurbulence type="fractalNoise" baseFrequency="10 10" stitchTiles="stitch" numOctaves="3" result="noise" seed="1471" />
<feColorMatrix in="noise" type="luminanceToAlpha" result="alphaNoise" />
<feComponentTransfer in="alphaNoise" result="coloredNoise1">
<feFuncA type="discrete" tableValues="1 1 1 1 1 1 1 1 1 1 1 1 1 1 1 1 1 1 1 1 1 1 1 1 1 1 1 1 1 1 1 1 1 1 1 1 1 1 1 1 1 1 1 1 1 1 1 1 1 1 1 0 0 0 0 0 0 0 0 0 0 0 0 0 0 0 0 0 0 0 0 0 0 0 0 0 0 0 0 0 0 0 0 0 0 0 0 0 0 0 0 0 0 0 0 0 0 0 0 0 "/>
</feComponentTransfer>
<feComposite operator="in" in2="effect1_innerShadow_746_1034" in="coloredNoise1" result="noise1Clipped" />
<feFlood flood-color="rgba(25, 14, 75, 0.2)" result="color1Flood" />
<feComposite operator="in" in2="noise1Clipped" in="color1Flood" result="color1" />
<feMerge result="effect2_noise_746_1034">
<feMergeNode in="effect1_innerShadow_746_1034" />
<feMergeNode in="color1" />
</feMerge>
</filter>
<linearGradient id="paint0_linear_746_1034" x1="16.1386" y1="-4.35893" x2="16.1386" y2="33.2882" gradientUnits="userSpaceOnUse">
<stop stop-color="#D0ACF4"/>
<stop offset="1" stop-color="#E992FF"/>
</linearGradient>
</defs>
</svg>
