<svg width="23" height="23" viewBox="0 0 23 23" fill="none" xmlns="http://www.w3.org/2000/svg">
<g filter="url(#filter0_in_804_523)">
<path d="M12.4513 0.72903C12.0502 -0.243036 10.6727 -0.242989 10.2559 0.729103L7.59331 6.9394C7.4039 7.38117 6.969 7.6685 6.48971 7.6685L1.20272 7.6685C0.137581 7.6685 -0.402263 8.95985 0.350331 9.70748L4.30741 13.6385C4.58217 13.9114 4.70526 14.3024 4.63713 14.6858L3.56258 20.732C3.38938 21.7066 4.40887 22.4466 5.2855 21.9827L10.6458 19.1458C10.9967 18.96 11.4156 18.96 11.7636 19.1458L17.0788 21.9828C17.9479 22.4467 18.9793 21.7067 18.8219 20.7321L17.8451 14.6858C17.7831 14.3024 17.9125 13.9114 18.1917 13.6385L22.2123 9.70748C22.977 8.95985 22.458 7.6685 21.3929 7.6685L16.1059 7.6685C15.6266 7.6685 15.1964 7.38121 15.0141 6.93947L12.4513 0.72903Z" fill="#835B4A"/>
</g>
<defs>
<filter id="filter0_in_804_523" x="0" y="0" width="22.5762" height="22.9187" filterUnits="userSpaceOnUse" color-interpolation-filters="sRGB">
<feFlood flood-opacity="0" result="BackgroundImageFix"/>
<feBlend mode="normal" in="SourceGraphic" in2="BackgroundImageFix" result="shape"/>
<feColorMatrix in="SourceAlpha" type="matrix" values="0 0 0 0 0 0 0 0 0 0 0 0 0 0 0 0 0 0 127 0" result="hardAlpha"/>
<feOffset dy="1.58782"/>
<feGaussianBlur stdDeviation="0.396955"/>
<feComposite in2="hardAlpha" operator="arithmetic" k2="-1" k3="1"/>
<feColorMatrix type="matrix" values="0 0 0 0 1 0 0 0 0 1 0 0 0 0 1 0 0 0 0.4 0"/>
<feBlend mode="normal" in2="shape" result="effect1_innerShadow_804_523"/>
<feTurbulence type="fractalNoise" baseFrequency="25.191776275634766 25.191776275634766" stitchTiles="stitch" numOctaves="3" result="noise" seed="1471" />
<feColorMatrix in="noise" type="luminanceToAlpha" result="alphaNoise" />
<feComponentTransfer in="alphaNoise" result="coloredNoise1">
<feFuncA type="discrete" tableValues="1 1 1 1 1 1 1 1 1 1 1 1 1 1 1 1 1 1 1 1 1 1 1 1 1 1 1 1 1 1 1 1 1 1 1 1 1 1 1 1 1 1 1 1 1 1 1 1 1 1 1 0 0 0 0 0 0 0 0 0 0 0 0 0 0 0 0 0 0 0 0 0 0 0 0 0 0 0 0 0 0 0 0 0 0 0 0 0 0 0 0 0 0 0 0 0 0 0 0 0 "/>
</feComponentTransfer>
<feComposite operator="in" in2="effect1_innerShadow_804_523" in="coloredNoise1" result="noise1Clipped" />
<feFlood flood-color="rgba(0, 0, 0, 0.12)" result="color1Flood" />
<feComposite operator="in" in2="noise1Clipped" in="color1Flood" result="color1" />
<feMerge result="effect2_noise_804_523">
<feMergeNode in="effect1_innerShadow_804_523" />
<feMergeNode in="color1" />
</feMerge>
</filter>
</defs>
</svg>
