<svg width="28" height="28" viewBox="0 0 28 28" fill="none" xmlns="http://www.w3.org/2000/svg">
<g filter="url(#filter0_in_1150_1906)">
<path d="M11.9318 1.47454C12.7713 -0.491585 15.5553 -0.491491 16.35 1.47469L18.7846 7.498C19.1455 8.39087 20.0105 8.97269 20.977 8.97269H25.5012C27.6342 8.97269 28.6716 11.5542 27.1441 13.061L23.4589 16.6963C22.9042 17.2435 22.6456 18.0226 22.765 18.7869L23.7184 24.8891C24.025 26.8518 21.9384 28.3355 20.1972 27.3928L15.0119 24.5856C14.3087 24.2049 13.4575 24.2049 12.7456 24.5856L7.4955 27.3931C5.73291 28.3357 3.68014 26.852 4.03131 24.8894L5.12319 18.7869C5.25995 18.0226 5.01905 17.2435 4.47674 16.6963L0.874118 13.061C-0.619195 11.5542 0.476784 8.97269 2.60983 8.97269H7.13415C8.10061 8.97269 8.97875 8.39094 9.35995 7.49814L11.9318 1.47454Z" fill="#D05B5B"/>
</g>
<path d="M10.5977 16.1736C11.1499 16.1736 11.5977 15.7259 11.5977 15.1736C11.5977 14.6213 11.1499 14.1736 10.5977 14.1736C10.0454 14.1736 9.59766 14.6213 9.59766 15.1736C9.59766 15.7259 10.0454 16.1736 10.5977 16.1736Z" fill="#551919"/>
<path d="M17.6016 16.1736C18.1538 16.1736 18.6016 15.7259 18.6016 15.1736C18.6016 14.6213 18.1538 14.1736 17.6016 14.1736C17.0493 14.1736 16.6016 14.6213 16.6016 15.1736C16.6016 15.7259 17.0493 16.1736 17.6016 16.1736Z" fill="#551919"/>
<path d="M11.7608 13.8881C11.6842 13.8881 11.6076 13.8638 11.542 13.8151L9.54622 12.3189C9.38456 12.1986 9.35296 11.9701 9.47329 11.8084C9.59362 11.6468 9.82212 11.6152 9.98378 11.7355L11.9796 13.2317C12.1412 13.3521 12.1728 13.5806 12.0525 13.7422C11.9808 13.8382 11.8714 13.8881 11.7608 13.8881Z" fill="#551919"/>
<path d="M16.39 13.942C16.2794 13.942 16.17 13.8922 16.0983 13.7962C15.978 13.6345 16.0096 13.406 16.1712 13.2857L18.167 11.7894C18.3287 11.6691 18.5572 11.7007 18.6775 11.8624C18.7978 12.024 18.7662 12.2525 18.6046 12.3729L16.6088 13.8691C16.5431 13.9177 16.4666 13.942 16.39 13.942Z" fill="#551919"/>
<path d="M17.6095 20.0353C17.477 20.0353 17.3482 19.9624 17.2838 19.836C16.6104 18.5099 15.3804 17.687 14.075 17.687C12.7696 17.687 11.5772 18.4734 10.8905 19.7898C10.7969 19.9685 10.5769 20.0377 10.3982 19.9441C10.2195 19.8506 10.1503 19.6306 10.2439 19.4519C11.0594 17.89 12.4912 16.9578 14.075 16.9578C15.6587 16.9578 17.1355 17.9338 17.9341 19.5054C18.0252 19.6853 17.9535 19.904 17.7736 19.9952C17.7201 20.0219 17.6642 20.0353 17.6083 20.0353H17.6095Z" fill="#551919"/>
<defs>
<filter id="filter0_in_1150_1906" x="0.185547" y="0" width="27.6855" height="29.031" filterUnits="userSpaceOnUse" color-interpolation-filters="sRGB">
<feFlood flood-opacity="0" result="BackgroundImageFix"/>
<feBlend mode="normal" in="SourceGraphic" in2="BackgroundImageFix" result="shape"/>
<feColorMatrix in="SourceAlpha" type="matrix" values="0 0 0 0 0 0 0 0 0 0 0 0 0 0 0 0 0 0 127 0" result="hardAlpha"/>
<feOffset dy="2.69391"/>
<feGaussianBlur stdDeviation="0.673477"/>
<feComposite in2="hardAlpha" operator="arithmetic" k2="-1" k3="1"/>
<feColorMatrix type="matrix" values="0 0 0 0 1 0 0 0 0 1 0 0 0 0 1 0 0 0 0.4 0"/>
<feBlend mode="normal" in2="shape" result="effect1_innerShadow_1150_1906"/>
<feTurbulence type="fractalNoise" baseFrequency="14.848320960998535 14.848320960998535" stitchTiles="stitch" numOctaves="3" result="noise" seed="1471" />
<feColorMatrix in="noise" type="luminanceToAlpha" result="alphaNoise" />
<feComponentTransfer in="alphaNoise" result="coloredNoise1">
<feFuncA type="discrete" tableValues="1 1 1 1 1 1 1 1 1 1 1 1 1 1 1 1 1 1 1 1 1 1 1 1 1 1 1 1 1 1 1 1 1 1 1 1 1 1 1 1 1 1 1 1 1 1 1 1 1 1 1 0 0 0 0 0 0 0 0 0 0 0 0 0 0 0 0 0 0 0 0 0 0 0 0 0 0 0 0 0 0 0 0 0 0 0 0 0 0 0 0 0 0 0 0 0 0 0 0 0 "/>
</feComponentTransfer>
<feComposite operator="in" in2="effect1_innerShadow_1150_1906" in="coloredNoise1" result="noise1Clipped" />
<feFlood flood-color="rgba(0, 0, 0, 0.12)" result="color1Flood" />
<feComposite operator="in" in2="noise1Clipped" in="color1Flood" result="color1" />
<feMerge result="effect2_noise_1150_1906">
<feMergeNode in="effect1_innerShadow_1150_1906" />
<feMergeNode in="color1" />
</feMerge>
</filter>
</defs>
</svg>
