<svg width="30" height="32" viewBox="0 0 30 32" fill="none" xmlns="http://www.w3.org/2000/svg">
<g filter="url(#filter0_in_588_793)">
<path d="M11.4812 0.5973C10.1412 -0.710451 7.88906 0.272572 7.90755 2.15714L7.98634 10.1903C7.99473 11.0461 7.49071 11.8262 6.70889 12.1674L1.27753 14.5379C-0.447527 15.2908 -0.41893 17.7623 1.32282 18.4525L7.35627 20.8431C7.9887 21.0937 8.45958 21.6377 8.61995 22.3031L10.3703 29.5651C10.7822 31.2743 12.9688 31.7477 14.0601 30.3639L18.5295 24.6963C18.9704 24.1373 19.6591 23.8366 20.3631 23.896L27.5014 24.4977C29.2439 24.6446 30.4058 22.7098 29.4619 21.2327L25.4518 14.9569C25.0844 14.3818 25.0173 13.6616 25.2718 13.0239L27.6994 6.9404C28.4003 5.18421 26.646 3.46583 24.921 4.21873L19.4895 6.58928C18.7077 6.93049 17.8018 6.76588 17.1933 6.17206L11.4812 0.5973Z" fill="#D05B5B"/>
</g>
<defs>
<filter id="filter0_in_588_793" x="0" y="0" width="29.7988" height="32.5804" filterUnits="userSpaceOnUse" color-interpolation-filters="sRGB">
<feFlood flood-opacity="0" result="BackgroundImageFix"/>
<feBlend mode="normal" in="SourceGraphic" in2="BackgroundImageFix" result="shape"/>
<feColorMatrix in="SourceAlpha" type="matrix" values="0 0 0 0 0 0 0 0 0 0 0 0 0 0 0 0 0 0 127 0" result="hardAlpha"/>
<feOffset dy="2.81505"/>
<feGaussianBlur stdDeviation="0.703762"/>
<feComposite in2="hardAlpha" operator="arithmetic" k2="-1" k3="1"/>
<feColorMatrix type="matrix" values="0 0 0 0 1 0 0 0 0 1 0 0 0 0 1 0 0 0 0.4 0"/>
<feBlend mode="normal" in2="shape" result="effect1_innerShadow_588_793"/>
<feTurbulence type="fractalNoise" baseFrequency="14.209345817565918 14.209345817565918" stitchTiles="stitch" numOctaves="3" result="noise" seed="1471" />
<feColorMatrix in="noise" type="luminanceToAlpha" result="alphaNoise" />
<feComponentTransfer in="alphaNoise" result="coloredNoise1">
<feFuncA type="discrete" tableValues="1 1 1 1 1 1 1 1 1 1 1 1 1 1 1 1 1 1 1 1 1 1 1 1 1 1 1 1 1 1 1 1 1 1 1 1 1 1 1 1 1 1 1 1 1 1 1 1 1 1 1 0 0 0 0 0 0 0 0 0 0 0 0 0 0 0 0 0 0 0 0 0 0 0 0 0 0 0 0 0 0 0 0 0 0 0 0 0 0 0 0 0 0 0 0 0 0 0 0 0 "/>
</feComponentTransfer>
<feComposite operator="in" in2="effect1_innerShadow_588_793" in="coloredNoise1" result="noise1Clipped" />
<feFlood flood-color="rgba(0, 0, 0, 0.12)" result="color1Flood" />
<feComposite operator="in" in2="noise1Clipped" in="color1Flood" result="color1" />
<feMerge result="effect2_noise_588_793">
<feMergeNode in="effect1_innerShadow_588_793" />
<feMergeNode in="color1" />
</feMerge>
</filter>
</defs>
</svg>
