<svg width="30" height="32" viewBox="0 0 30 32" fill="none" xmlns="http://www.w3.org/2000/svg">
<g filter="url(#filter0_in_588_785)">
<path d="M18.3177 0.5973C19.6576 -0.710451 21.9098 0.272572 21.8913 2.15714L21.8125 10.1903C21.8041 11.0461 22.3081 11.8262 23.0899 12.1674L28.5213 14.5379C30.2464 15.2908 30.2178 17.7623 28.476 18.4525L22.4426 20.8431C21.8101 21.0937 21.3393 21.6377 21.1789 22.3031L19.4286 29.5651C19.0166 31.2743 16.83 31.7477 15.7388 30.3639L11.2693 24.6963C10.8285 24.1373 10.1397 23.8366 9.43575 23.896L2.29743 24.4977C0.554882 24.6446 -0.606931 22.7098 0.336883 21.2327L4.34702 14.9569C4.71445 14.3818 4.78155 13.6616 4.52708 13.0239L2.0994 6.9404C1.39857 5.18421 3.15281 3.46583 4.87786 4.21873L10.3093 6.58928C11.0911 6.93049 11.997 6.76588 12.6055 6.17206L18.3177 0.5973Z" fill="#F4E775"/>
</g>
<defs>
<filter id="filter0_in_588_785" x="0" y="0" width="29.7988" height="32.5804" filterUnits="userSpaceOnUse" color-interpolation-filters="sRGB">
<feFlood flood-opacity="0" result="BackgroundImageFix"/>
<feBlend mode="normal" in="SourceGraphic" in2="BackgroundImageFix" result="shape"/>
<feColorMatrix in="SourceAlpha" type="matrix" values="0 0 0 0 0 0 0 0 0 0 0 0 0 0 0 0 0 0 127 0" result="hardAlpha"/>
<feOffset dy="2.81505"/>
<feGaussianBlur stdDeviation="0.703762"/>
<feComposite in2="hardAlpha" operator="arithmetic" k2="-1" k3="1"/>
<feColorMatrix type="matrix" values="0 0 0 0 1 0 0 0 0 1 0 0 0 0 1 0 0 0 0.4 0"/>
<feBlend mode="normal" in2="shape" result="effect1_innerShadow_588_785"/>
<feTurbulence type="fractalNoise" baseFrequency="14.209345817565918 14.209345817565918" stitchTiles="stitch" numOctaves="3" result="noise" seed="1471" />
<feColorMatrix in="noise" type="luminanceToAlpha" result="alphaNoise" />
<feComponentTransfer in="alphaNoise" result="coloredNoise1">
<feFuncA type="discrete" tableValues="1 1 1 1 1 1 1 1 1 1 1 1 1 1 1 1 1 1 1 1 1 1 1 1 1 1 1 1 1 1 1 1 1 1 1 1 1 1 1 1 1 1 1 1 1 1 1 1 1 1 1 0 0 0 0 0 0 0 0 0 0 0 0 0 0 0 0 0 0 0 0 0 0 0 0 0 0 0 0 0 0 0 0 0 0 0 0 0 0 0 0 0 0 0 0 0 0 0 0 0 "/>
</feComponentTransfer>
<feComposite operator="in" in2="effect1_innerShadow_588_785" in="coloredNoise1" result="noise1Clipped" />
<feFlood flood-color="rgba(0, 0, 0, 0.12)" result="color1Flood" />
<feComposite operator="in" in2="noise1Clipped" in="color1Flood" result="color1" />
<feMerge result="effect2_noise_588_785">
<feMergeNode in="effect1_innerShadow_588_785" />
<feMergeNode in="color1" />
</feMerge>
</filter>
</defs>
</svg>
