<svg width="31" height="31" viewBox="0 0 31 31" fill="none" xmlns="http://www.w3.org/2000/svg">
<g filter="url(#filter0_in_588_775)">
<path d="M5.76588 2.46904C5.47507 0.6058 7.55858 -0.69615 9.0724 0.402847L15.5263 5.08824C16.2138 5.58731 17.1331 5.61796 17.8564 5.16594L22.8829 2.0247C24.4792 1.02712 26.4623 2.47288 26.0235 4.31436L24.5041 10.691C24.3447 11.3598 24.5154 12.0634 24.962 12.5793L29.8338 18.2061C30.9807 19.5308 30.1128 21.6164 28.3691 21.7256L21.2246 22.1732C20.5204 22.2173 19.8833 22.6155 19.5286 23.2331L15.9285 29.5004C15.05 31.0297 12.8203 30.88 12.1656 29.2478L9.3848 22.314C9.12987 21.6783 8.58542 21.2083 7.92378 21.0526L1.61485 19.5681C-0.207068 19.1394 -0.593578 16.6959 1.00274 15.6983L6.02935 12.557C6.75262 12.105 7.13786 11.2592 7.00581 10.4131L5.76588 2.46904Z" fill="#FDB6B6"/>
</g>
<defs>
<filter id="filter0_in_588_775" x="0" y="0" width="30.3535" height="31.972" filterUnits="userSpaceOnUse" color-interpolation-filters="sRGB">
<feFlood flood-opacity="0" result="BackgroundImageFix"/>
<feBlend mode="normal" in="SourceGraphic" in2="BackgroundImageFix" result="shape"/>
<feColorMatrix in="SourceAlpha" type="matrix" values="0 0 0 0 0 0 0 0 0 0 0 0 0 0 0 0 0 0 127 0" result="hardAlpha"/>
<feOffset dy="2.81505"/>
<feGaussianBlur stdDeviation="0.703762"/>
<feComposite in2="hardAlpha" operator="arithmetic" k2="-1" k3="1"/>
<feColorMatrix type="matrix" values="0 0 0 0 1 0 0 0 0 1 0 0 0 0 1 0 0 0 0.4 0"/>
<feBlend mode="normal" in2="shape" result="effect1_innerShadow_588_775"/>
<feTurbulence type="fractalNoise" baseFrequency="14.209345817565918 14.209345817565918" stitchTiles="stitch" numOctaves="3" result="noise" seed="1471" />
<feColorMatrix in="noise" type="luminanceToAlpha" result="alphaNoise" />
<feComponentTransfer in="alphaNoise" result="coloredNoise1">
<feFuncA type="discrete" tableValues="1 1 1 1 1 1 1 1 1 1 1 1 1 1 1 1 1 1 1 1 1 1 1 1 1 1 1 1 1 1 1 1 1 1 1 1 1 1 1 1 1 1 1 1 1 1 1 1 1 1 1 0 0 0 0 0 0 0 0 0 0 0 0 0 0 0 0 0 0 0 0 0 0 0 0 0 0 0 0 0 0 0 0 0 0 0 0 0 0 0 0 0 0 0 0 0 0 0 0 0 "/>
</feComponentTransfer>
<feComposite operator="in" in2="effect1_innerShadow_588_775" in="coloredNoise1" result="noise1Clipped" />
<feFlood flood-color="rgba(0, 0, 0, 0.12)" result="color1Flood" />
<feComposite operator="in" in2="noise1Clipped" in="color1Flood" result="color1" />
<feMerge result="effect2_noise_588_775">
<feMergeNode in="effect1_innerShadow_588_775" />
<feMergeNode in="color1" />
</feMerge>
</filter>
</defs>
</svg>
