<svg width="28" height="28" viewBox="0 0 28 28" fill="none" xmlns="http://www.w3.org/2000/svg">
<g filter="url(#filter0_in_1150_1884)">
<path d="M11.9318 1.47454C12.7713 -0.491585 15.5553 -0.491491 16.35 1.47469L18.7846 7.498C19.1455 8.39087 20.0105 8.97269 20.977 8.97269H25.5012C27.6342 8.97269 28.6716 11.5542 27.1441 13.061L23.4589 16.6963C22.9042 17.2435 22.6456 18.0226 22.765 18.7869L23.7184 24.8891C24.025 26.8518 21.9384 28.3355 20.1972 27.3928L15.0119 24.5856C14.3087 24.2049 13.4575 24.2049 12.7456 24.5856L7.4955 27.3931C5.73291 28.3357 3.68014 26.852 4.03131 24.8894L5.12319 18.7869C5.25995 18.0226 5.01905 17.2435 4.47674 16.6963L0.874118 13.061C-0.619195 11.5542 0.476784 8.97269 2.60983 8.97269H7.13415C8.10061 8.97269 8.97875 8.39094 9.35995 7.49814L11.9318 1.47454Z" fill="#FDB6B6"/>
</g>
<path d="M13.8634 19.0008C13.0999 19.0008 12.3121 18.7242 11.4543 18.1557C11.2784 18.0385 11.23 17.8014 11.3473 17.6255C11.4645 17.4496 11.7016 17.4012 11.8775 17.5184C12.6053 18.0015 13.2554 18.236 13.8646 18.236C14.7021 18.236 15.4375 17.8486 15.9066 17.5223C16.0799 17.4024 16.3183 17.4445 16.4394 17.6178C16.5592 17.7912 16.5171 18.0296 16.3438 18.1506C15.7855 18.5381 14.9022 19.0008 13.8659 19.0008H13.8634Z" fill="#572222"/>
<path d="M10.6571 13.8325C9.76358 13.8325 9.16195 13.366 8.91722 12.484C8.86114 12.28 8.97968 12.0697 9.18362 12.0136C9.38756 11.9563 9.59788 12.0761 9.65396 12.28C9.80819 12.8332 10.1077 13.069 10.6571 13.069C11.2868 13.069 11.5837 12.577 11.659 12.2864C11.7125 12.0824 11.9203 11.9588 12.1255 12.0123C12.3294 12.0659 12.453 12.2749 12.3995 12.4789C12.23 13.1315 11.6118 13.8338 10.6571 13.8338V13.8325Z" fill="#572222"/>
<path d="M8.263 13.7091C8.10877 13.7091 7.96346 13.6148 7.90483 13.4619C7.82963 13.2643 7.93032 13.0438 8.12789 12.9686L9.24447 12.5467C9.44203 12.4715 9.66254 12.5722 9.73775 12.7697C9.81295 12.9673 9.71225 13.1878 9.51469 13.263L8.39811 13.6849C8.3535 13.7015 8.30761 13.7091 8.263 13.7091Z" fill="#572222"/>
<path d="M9.43183 14.9964C9.36682 14.9964 9.30054 14.9799 9.24063 14.9454C9.05836 14.8397 8.9959 14.6064 9.10042 14.4229L9.69823 13.3879C9.80402 13.2056 10.0373 13.1431 10.2208 13.2476C10.4031 13.3534 10.4656 13.5867 10.361 13.7702L9.76323 14.8052C9.69185 14.9276 9.56439 14.9964 9.43183 14.9964Z" fill="#572222"/>
<path d="M11.2704 15.0742C11.0945 15.0742 10.9364 14.9519 10.8969 14.7734L10.6611 13.6938C10.6165 13.4873 10.7465 13.2834 10.953 13.2387C11.1595 13.1941 11.3634 13.3241 11.408 13.5306L11.6438 14.6102C11.6885 14.8167 11.5584 15.0207 11.352 15.0653C11.3239 15.0717 11.2971 15.0742 11.2704 15.0742Z" fill="#572222"/>
<path d="M17.2921 13.8333C16.3374 13.8333 15.7192 13.131 15.5497 12.4784C15.4961 12.2745 15.6185 12.0654 15.8237 12.0119C16.0277 11.9584 16.2367 12.0807 16.2902 12.2859C16.3654 12.5766 16.6624 13.0686 17.2921 13.0686C17.8415 13.0686 18.1423 12.8328 18.2952 12.2796C18.3513 12.0756 18.5629 11.9571 18.7656 12.0132C18.9695 12.0693 19.088 12.2808 19.032 12.4835C18.7872 13.3656 18.1843 13.8321 17.2921 13.8321V13.8333Z" fill="#572222"/>
<path d="M19.6935 13.7108C19.6489 13.7108 19.603 13.7032 19.5584 13.6866L18.4418 13.2647C18.2443 13.1895 18.1448 12.969 18.2188 12.7714C18.294 12.5738 18.5145 12.4744 18.712 12.5484L19.8286 12.9703C20.0262 13.0455 20.1256 13.266 20.0517 13.4635C19.9943 13.6165 19.849 13.7108 19.6935 13.7108Z" fill="#572222"/>
<path d="M18.5246 14.9973C18.3921 14.9973 18.2646 14.9284 18.1932 14.8061L17.5954 13.7711C17.4896 13.5888 17.5521 13.3543 17.7356 13.2485C17.9179 13.1427 18.1524 13.2052 18.2582 13.3887L18.856 14.4237C18.9618 14.606 18.8994 14.8405 18.7158 14.9463C18.6559 14.9807 18.5896 14.9973 18.5246 14.9973Z" fill="#572222"/>
<path d="M16.684 15.0746C16.6572 15.0746 16.6292 15.072 16.6024 15.0657C16.3959 15.0211 16.2659 14.8171 16.3105 14.6106L16.5463 13.531C16.5909 13.3245 16.7949 13.1932 17.0014 13.2391C17.2079 13.2837 17.3379 13.4877 17.2933 13.6942L17.0575 14.7738C17.0179 14.9522 16.8599 15.0746 16.684 15.0746Z" fill="#572222"/>
<path d="M20.2603 16.1037C20.2603 16.5549 19.6498 16.9207 18.8977 16.9207C18.1457 16.9207 17.5352 16.5549 17.5352 16.1037C17.5352 15.6524 18.1457 15.2866 18.8977 15.2866C19.6498 15.2866 20.2603 15.6524 20.2603 16.1037Z" fill="#ED5F7A"/>
<path d="M10.4254 16.1037C10.4254 16.5549 9.81481 16.9207 9.06277 16.9207C8.31074 16.9207 7.7002 16.5549 7.7002 16.1037C7.7002 15.6524 8.31074 15.2866 9.06277 15.2866C9.81481 15.2866 10.4254 15.6524 10.4254 16.1037Z" fill="#ED5F7A"/>
<defs>
<filter id="filter0_in_1150_1884" x="0.185547" y="0" width="27.6855" height="29.031" filterUnits="userSpaceOnUse" color-interpolation-filters="sRGB">
<feFlood flood-opacity="0" result="BackgroundImageFix"/>
<feBlend mode="normal" in="SourceGraphic" in2="BackgroundImageFix" result="shape"/>
<feColorMatrix in="SourceAlpha" type="matrix" values="0 0 0 0 0 0 0 0 0 0 0 0 0 0 0 0 0 0 127 0" result="hardAlpha"/>
<feOffset dy="2.69391"/>
<feGaussianBlur stdDeviation="0.673477"/>
<feComposite in2="hardAlpha" operator="arithmetic" k2="-1" k3="1"/>
<feColorMatrix type="matrix" values="0 0 0 0 1 0 0 0 0 1 0 0 0 0 1 0 0 0 0.4 0"/>
<feBlend mode="normal" in2="shape" result="effect1_innerShadow_1150_1884"/>
<feTurbulence type="fractalNoise" baseFrequency="14.848320960998535 14.848320960998535" stitchTiles="stitch" numOctaves="3" result="noise" seed="1471" />
<feColorMatrix in="noise" type="luminanceToAlpha" result="alphaNoise" />
<feComponentTransfer in="alphaNoise" result="coloredNoise1">
<feFuncA type="discrete" tableValues="1 1 1 1 1 1 1 1 1 1 1 1 1 1 1 1 1 1 1 1 1 1 1 1 1 1 1 1 1 1 1 1 1 1 1 1 1 1 1 1 1 1 1 1 1 1 1 1 1 1 1 0 0 0 0 0 0 0 0 0 0 0 0 0 0 0 0 0 0 0 0 0 0 0 0 0 0 0 0 0 0 0 0 0 0 0 0 0 0 0 0 0 0 0 0 0 0 0 0 0 "/>
</feComponentTransfer>
<feComposite operator="in" in2="effect1_innerShadow_1150_1884" in="coloredNoise1" result="noise1Clipped" />
<feFlood flood-color="rgba(0, 0, 0, 0.12)" result="color1Flood" />
<feComposite operator="in" in2="noise1Clipped" in="color1Flood" result="color1" />
<feMerge result="effect2_noise_1150_1884">
<feMergeNode in="effect1_innerShadow_1150_1884" />
<feMergeNode in="color1" />
</feMerge>
</filter>
</defs>
</svg>
