<svg width="28" height="28" viewBox="0 0 28 28" fill="none" xmlns="http://www.w3.org/2000/svg">
<g filter="url(#filter0_in_1150_1914)">
<path d="M11.9318 1.47454C12.7713 -0.491585 15.5553 -0.491491 16.35 1.47469L18.7846 7.498C19.1455 8.39087 20.0105 8.97269 20.977 8.97269H25.5012C27.6342 8.97269 28.6716 11.5542 27.1441 13.061L23.4589 16.6963C22.9042 17.2435 22.6456 18.0226 22.765 18.7869L23.7184 24.8891C24.025 26.8518 21.9384 28.3355 20.1972 27.3928L15.0119 24.5856C14.3087 24.2049 13.4575 24.2049 12.7456 24.5856L7.4955 27.3931C5.73291 28.3357 3.68014 26.852 4.03131 24.8894L5.12319 18.7869C5.25995 18.0226 5.01905 17.2435 4.47674 16.6963L0.874118 13.061C-0.619195 11.5542 0.476784 8.97269 2.60983 8.97269H7.13415C8.10061 8.97269 8.97875 8.39094 9.35995 7.49814L11.9318 1.47454Z" fill="#8450B8"/>
</g>
<path d="M15.7325 19.823H15.7298C15.1099 19.8216 14.8013 19.4042 14.5754 19.0998C14.3674 18.8188 14.271 18.7127 14.0836 18.7113C13.8976 18.7113 13.7998 18.8174 13.5904 19.0971C13.3645 19.4001 13.0532 19.8148 12.4361 19.8148H12.4333C11.8134 19.8134 11.5048 19.396 11.2789 19.0929C11.0709 18.8119 10.9745 18.7058 10.7872 18.7045C10.5075 18.7058 10.3009 18.7871 10.0694 18.9937C9.89863 19.1453 9.63828 19.1301 9.48537 18.9607C9.33384 18.7899 9.34899 18.5295 9.51843 18.3766C9.90001 18.0363 10.3009 17.8779 10.7816 17.8779H10.7872C11.407 17.8793 11.7156 18.2967 11.9415 18.5998C12.1495 18.8808 12.246 18.9882 12.4333 18.9882C12.6193 18.9882 12.7171 18.8822 12.9265 18.6025C13.1524 18.2995 13.4637 17.8848 14.0809 17.8848H14.0836C14.7035 17.8862 15.0121 18.3036 15.238 18.608C15.446 18.889 15.5424 18.9951 15.7298 18.9965C15.9157 18.9965 16.0135 18.8904 16.2229 18.6108C16.4489 18.3077 16.7602 17.8931 17.3773 17.8931H17.3801C18.0041 17.8945 18.3664 18.1796 18.6653 18.4854C18.8251 18.6494 18.821 18.9111 18.6571 19.0695C18.4931 19.2293 18.2314 19.2252 18.073 19.0612C17.8471 18.8298 17.6859 18.7196 17.3787 18.7182C17.1941 18.7182 17.0949 18.8243 16.8855 19.1039C16.6596 19.407 16.3483 19.8216 15.7312 19.8216L15.7325 19.823Z" fill="#2B1B3B"/>
<path d="M10.3017 15.9953C9.72315 15.9953 9.1432 15.7831 8.72856 15.3795C8.56464 15.2197 8.56188 14.9594 8.7203 14.7954C8.88009 14.6315 9.14045 14.6288 9.30437 14.7872C9.73279 15.2032 10.4725 15.2941 10.9891 14.9924C11.5057 14.6908 11.7895 14.002 11.6379 13.4248C11.5043 12.9165 11.0387 12.5142 10.5566 12.4894C10.237 12.4729 9.91876 12.6355 9.72728 12.8793C9.85402 12.7801 10.0111 12.7154 10.1791 12.7043C10.4959 12.6837 10.8197 12.849 11.0029 13.1286C11.1489 13.3504 11.1985 13.6259 11.1406 13.9028C11.08 14.1935 10.9106 14.4483 10.6723 14.604C10.2439 14.885 9.63361 14.8381 9.2231 14.4951C8.86632 14.1976 8.67622 13.7044 8.72856 13.2099C8.82086 12.3228 9.67907 11.6174 10.6006 11.6657C11.4396 11.7097 12.2124 12.3627 12.4383 13.2154C12.6849 14.1494 12.2413 15.2211 11.4079 15.7074C11.0745 15.9016 10.6902 15.9967 10.3045 15.9967L10.3017 15.9953Z" fill="#2B1B3B"/>
<path d="M17.3007 15.9953C16.7222 15.9953 16.1422 15.7831 15.7276 15.3795C15.5637 15.2197 15.5609 14.9594 15.7193 14.7954C15.8791 14.6315 16.1409 14.6288 16.3034 14.7872C16.7318 15.2032 17.4716 15.2941 17.9881 14.9924C18.5047 14.6908 18.7885 14.002 18.637 13.4248C18.5033 12.9165 18.0377 12.5142 17.5556 12.4894C17.236 12.4729 16.9178 12.6355 16.7263 12.8793C16.853 12.7801 17.0101 12.7154 17.1781 12.7043C17.495 12.6837 17.8187 12.849 18.0019 13.1286C18.1479 13.3504 18.1975 13.6259 18.1397 13.9028C18.0791 14.1935 17.9096 14.4483 17.6713 14.604C17.2429 14.885 16.6326 14.8381 16.2221 14.4951C15.8653 14.1976 15.6752 13.7044 15.7276 13.2099C15.8199 12.3228 16.6781 11.6174 17.5997 11.6657C18.4386 11.7097 19.2114 12.3627 19.4373 13.2154C19.6839 14.1494 19.2403 15.2211 18.4069 15.7074C18.0735 15.9016 17.6892 15.9967 17.3035 15.9967L17.3007 15.9953Z" fill="#2B1B3B"/>
<defs>
<filter id="filter0_in_1150_1914" x="0.185547" y="0" width="27.6855" height="29.031" filterUnits="userSpaceOnUse" color-interpolation-filters="sRGB">
<feFlood flood-opacity="0" result="BackgroundImageFix"/>
<feBlend mode="normal" in="SourceGraphic" in2="BackgroundImageFix" result="shape"/>
<feColorMatrix in="SourceAlpha" type="matrix" values="0 0 0 0 0 0 0 0 0 0 0 0 0 0 0 0 0 0 127 0" result="hardAlpha"/>
<feOffset dy="2.69391"/>
<feGaussianBlur stdDeviation="0.673477"/>
<feComposite in2="hardAlpha" operator="arithmetic" k2="-1" k3="1"/>
<feColorMatrix type="matrix" values="0 0 0 0 1 0 0 0 0 1 0 0 0 0 1 0 0 0 0.4 0"/>
<feBlend mode="normal" in2="shape" result="effect1_innerShadow_1150_1914"/>
<feTurbulence type="fractalNoise" baseFrequency="14.848320960998535 14.848320960998535" stitchTiles="stitch" numOctaves="3" result="noise" seed="1471" />
<feColorMatrix in="noise" type="luminanceToAlpha" result="alphaNoise" />
<feComponentTransfer in="alphaNoise" result="coloredNoise1">
<feFuncA type="discrete" tableValues="1 1 1 1 1 1 1 1 1 1 1 1 1 1 1 1 1 1 1 1 1 1 1 1 1 1 1 1 1 1 1 1 1 1 1 1 1 1 1 1 1 1 1 1 1 1 1 1 1 1 1 0 0 0 0 0 0 0 0 0 0 0 0 0 0 0 0 0 0 0 0 0 0 0 0 0 0 0 0 0 0 0 0 0 0 0 0 0 0 0 0 0 0 0 0 0 0 0 0 0 "/>
</feComponentTransfer>
<feComposite operator="in" in2="effect1_innerShadow_1150_1914" in="coloredNoise1" result="noise1Clipped" />
<feFlood flood-color="rgba(0, 0, 0, 0.12)" result="color1Flood" />
<feComposite operator="in" in2="noise1Clipped" in="color1Flood" result="color1" />
<feMerge result="effect2_noise_1150_1914">
<feMergeNode in="effect1_innerShadow_1150_1914" />
<feMergeNode in="color1" />
</feMerge>
</filter>
</defs>
</svg>
