<svg width="24" height="24" viewBox="0 0 24 24" fill="none" xmlns="http://www.w3.org/2000/svg">
<path d="M21.0281 8.00833L15.7324 2.7208C16.2584 2.21182 16.7711 1.70723 17.2719 1.20452C17.8267 0.648466 18.2334 0.316466 18.4914 0.210402C20.3811 -0.564683 21.3884 0.966032 22.6448 2.13274C23.5341 2.96054 23.964 3.99483 23.5498 5.154C23.4306 5.48851 23.0609 5.9749 22.4402 6.61506C21.9613 7.10835 21.4906 7.57214 21.0281 8.0077V8.00833Z" fill="#FFCACD"/>
<path d="M15.7323 2.72046L21.028 8.00798C19.3008 9.76903 17.595 11.4805 15.9112 13.1392C15.3501 13.6928 14.7953 14.2526 14.2468 14.8193C14.1263 14.9442 14.0372 15.0647 13.9794 15.1814C13.8483 15.2524 13.7252 15.3452 13.6098 15.4595C11.5839 17.4766 9.55485 19.4918 7.52582 21.5076C6.91454 22.1145 6.50409 22.2288 5.81184 22.4691L3.16149 23.3151L0.669922 20.8248C1.03581 19.5451 1.41363 18.2385 1.80274 16.9048C1.90378 16.5559 2.16863 16.2245 2.59602 15.9082L13.9951 4.42439L15.7329 2.72109L15.7323 2.72046Z" fill="url(#paint0_linear_916_5370)"/>
<path d="M3.16217 23.3152C2.59671 23.5172 1.97664 23.7099 1.30385 23.8932C0.735872 24.0495 0.246972 24.1084 0.0266846 23.5336C-0.0191302 23.4156 -0.00595031 23.2191 0.0662236 22.9424C0.244462 22.2501 0.446549 21.5447 0.670602 20.8242L3.16217 23.3145V23.3152Z" fill="#DCB2E4"/>
<defs>
<linearGradient id="paint0_linear_916_5370" x1="10.849" y1="2.72046" x2="10.849" y2="23.3151" gradientUnits="userSpaceOnUse">
<stop stop-color="#D093CA"/>
<stop offset="1" stop-color="#A093D0"/>
</linearGradient>
</defs>
</svg>
