<svg width="24" height="24" viewBox="0 0 24 24" fill="none" xmlns="http://www.w3.org/2000/svg">
<g filter="url(#filter0_in_1266_1751)">
<rect x="2" y="3" width="13.6366" height="18.1822" rx="1.81822" fill="url(#paint0_linear_1266_1751)"/>
<path d="M21.7825 11.4666L18.2326 7.31809C18.0368 7.08762 17.7497 7.02726 17.5061 7.1617C17.2603 7.29615 17.1015 7.60344 17.1015 7.94092V9.88623L10.856 9.82212C10.484 9.82212 10.1817 10.2035 10.1817 10.6727V13.3807C10.1817 13.8499 10.484 14.2313 10.856 14.2313L17.1015 14.2954V16.2407C17.1015 16.5782 17.2603 16.8855 17.5061 17.0199C17.5931 17.0666 17.6845 17.0913 17.7758 17.0913C17.9433 17.0913 18.1064 17.0144 18.2348 16.8635L21.7847 12.715C21.9217 12.5531 22.0001 12.3281 22.0001 12.0922C22.0001 11.8562 21.9217 11.6285 21.7847 11.4694L21.7825 11.4666Z" fill="#FF847B"/>
</g>
<defs>
<filter id="filter0_in_1266_1751" x="2" y="3" width="20" height="19.1821" filterUnits="userSpaceOnUse" color-interpolation-filters="sRGB">
<feFlood flood-opacity="0" result="BackgroundImageFix"/>
<feBlend mode="normal" in="SourceGraphic" in2="BackgroundImageFix" result="shape"/>
<feColorMatrix in="SourceAlpha" type="matrix" values="0 0 0 0 0 0 0 0 0 0 0 0 0 0 0 0 0 0 127 0" result="hardAlpha"/>
<feOffset dy="1"/>
<feGaussianBlur stdDeviation="0.5"/>
<feComposite in2="hardAlpha" operator="arithmetic" k2="-1" k3="1"/>
<feColorMatrix type="matrix" values="0 0 0 0 1 0 0 0 0 1 0 0 0 0 1 0 0 0 0.4 0"/>
<feBlend mode="normal" in2="shape" result="effect1_innerShadow_1266_1751"/>
<feTurbulence type="fractalNoise" baseFrequency="10 10" stitchTiles="stitch" numOctaves="3" result="noise" seed="7008" />
<feColorMatrix in="noise" type="luminanceToAlpha" result="alphaNoise" />
<feComponentTransfer in="alphaNoise" result="coloredNoise1">
<feFuncA type="discrete" tableValues="1 1 1 1 1 1 1 1 1 1 1 1 1 1 1 1 1 1 1 1 1 1 1 1 1 1 1 1 1 1 1 1 1 1 1 1 1 1 1 1 1 1 1 1 1 1 1 1 1 1 1 0 0 0 0 0 0 0 0 0 0 0 0 0 0 0 0 0 0 0 0 0 0 0 0 0 0 0 0 0 0 0 0 0 0 0 0 0 0 0 0 0 0 0 0 0 0 0 0 0 "/>
</feComponentTransfer>
<feComposite operator="in" in2="effect1_innerShadow_1266_1751" in="coloredNoise1" result="noise1Clipped" />
<feFlood flood-color="rgba(0, 0, 0, 0.12)" result="color1Flood" />
<feComposite operator="in" in2="noise1Clipped" in="color1Flood" result="color1" />
<feMerge result="effect2_noise_1266_1751">
<feMergeNode in="effect1_innerShadow_1266_1751" />
<feMergeNode in="color1" />
</feMerge>
</filter>
<linearGradient id="paint0_linear_1266_1751" x1="15.6366" y1="12.0911" x2="2" y2="12.0911" gradientUnits="userSpaceOnUse">
<stop stop-color="#CED0F2"/>
<stop offset="1" stop-color="#989DE9"/>
</linearGradient>
</defs>
</svg>
