<svg width="24" height="24" viewBox="0 0 24 24" fill="none" xmlns="http://www.w3.org/2000/svg">
<g filter="url(#filter0_in_1039_2151)">
<path d="M2 7.33333C2 5.46649 2 4.53307 2.36331 3.82003C2.68289 3.19282 3.19282 2.68289 3.82003 2.36331C4.53307 2 5.46649 2 7.33333 2H16.6667C18.5335 2 19.4669 2 20.18 2.36331C20.8072 2.68289 21.3171 3.19282 21.6367 3.82003C22 4.53307 22 5.46649 22 7.33333V16.6667C22 18.5335 22 19.4669 21.6367 20.18C21.3171 20.8072 20.8072 21.3171 20.18 21.6367C19.4669 22 18.5335 22 16.6667 22H7.33333C5.46649 22 4.53307 22 3.82003 21.6367C3.19282 21.3171 2.68289 20.8072 2.36331 20.18C2 19.4669 2 18.5335 2 16.6667V7.33333Z" fill="url(#paint0_linear_1039_2151)"/>
</g>
<path d="M11 16.0816V12C11.0001 11.4928 11.4454 11.0816 11.9947 11.0816C12.544 11.0816 12.9893 11.4928 12.9893 12V16.0816C12.9893 16.5888 12.544 17 11.9947 17C11.4453 17 11 16.5888 11 16.0816ZM12.0053 7C12.5547 7 13 7.41118 13 7.91839C13 8.4256 12.5547 8.83677 12.0053 8.83677H11.9947C11.4453 8.83677 11 8.4256 11 7.91839C11 7.41118 11.4453 7 11.9947 7H12.0053Z" fill="white"/>
<defs>
<filter id="filter0_in_1039_2151" x="2" y="2" width="20" height="21" filterUnits="userSpaceOnUse" color-interpolation-filters="sRGB">
<feFlood flood-opacity="0" result="BackgroundImageFix"/>
<feBlend mode="normal" in="SourceGraphic" in2="BackgroundImageFix" result="shape"/>
<feColorMatrix in="SourceAlpha" type="matrix" values="0 0 0 0 0 0 0 0 0 0 0 0 0 0 0 0 0 0 127 0" result="hardAlpha"/>
<feOffset dy="1"/>
<feGaussianBlur stdDeviation="0.5"/>
<feComposite in2="hardAlpha" operator="arithmetic" k2="-1" k3="1"/>
<feColorMatrix type="matrix" values="0 0 0 0 1 0 0 0 0 1 0 0 0 0 1 0 0 0 0.4 0"/>
<feBlend mode="normal" in2="shape" result="effect1_innerShadow_1039_2151"/>
<feTurbulence type="fractalNoise" baseFrequency="10 10" stitchTiles="stitch" numOctaves="3" result="noise" seed="3144" />
<feColorMatrix in="noise" type="luminanceToAlpha" result="alphaNoise" />
<feComponentTransfer in="alphaNoise" result="coloredNoise1">
<feFuncA type="discrete" tableValues="1 1 1 1 1 1 1 1 1 1 1 1 1 1 1 1 1 1 1 1 1 1 1 1 1 1 1 1 1 1 1 1 1 1 1 1 1 1 1 1 1 1 1 1 1 1 1 1 1 1 1 0 0 0 0 0 0 0 0 0 0 0 0 0 0 0 0 0 0 0 0 0 0 0 0 0 0 0 0 0 0 0 0 0 0 0 0 0 0 0 0 0 0 0 0 0 0 0 0 0 "/>
</feComponentTransfer>
<feComposite operator="in" in2="effect1_innerShadow_1039_2151" in="coloredNoise1" result="noise1Clipped" />
<feFlood flood-color="rgba(0, 0, 0, 0.12)" result="color1Flood" />
<feComposite operator="in" in2="noise1Clipped" in="color1Flood" result="color1" />
<feMerge result="effect2_noise_1039_2151">
<feMergeNode in="effect1_innerShadow_1039_2151" />
<feMergeNode in="color1" />
</feMerge>
</filter>
<linearGradient id="paint0_linear_1039_2151" x1="12" y1="2" x2="12" y2="22" gradientUnits="userSpaceOnUse">
<stop stop-color="#BADDAD"/>
<stop offset="1" stop-color="#92CAB5"/>
</linearGradient>
</defs>
</svg>
