<svg width="24" height="24" viewBox="0 0 24 24" fill="none" xmlns="http://www.w3.org/2000/svg">
<g filter="url(#filter0_in_1039_2160)">
<path d="M12.6406 19.575L11.5797 19.5679C11.1453 19.5653 10.8131 19.1836 10.8703 18.7538L11.2398 15.9714C10.7617 15.7028 10.4404 15.1926 10.4404 14.6072C10.4404 13.7411 11.1473 13.0381 12.0186 13.0381C12.8899 13.0381 13.598 13.7411 13.598 14.6072C13.598 15.1901 13.2799 15.697 12.8051 15.9676L13.35 18.7152C13.4387 19.1618 13.0942 19.5782 12.6393 19.575H12.6406Z" fill="#613824"/>
<path d="M6.10449 10.124H17.9882C18.9289 10.124 19.6929 10.8874 19.6929 11.8281V20.2946C19.6929 21.2366 18.9289 22 17.9882 22H6.10449C5.16376 22 4.40039 21.2366 4.40039 20.2946V11.8281C4.40039 10.8868 5.16312 10.124 6.10449 10.124ZM13.3508 18.7152L12.8059 15.9676C13.2801 15.6964 13.5988 15.19 13.5988 14.6072C13.5988 13.7411 12.892 13.0381 12.0193 13.0381C11.1467 13.0381 10.4412 13.7411 10.4412 14.6072C10.4412 15.1926 10.7631 15.7028 11.2406 15.9714L10.8711 18.7537C10.8139 19.1836 11.1461 19.5653 11.5805 19.5679L12.6414 19.575C13.0963 19.5782 13.4407 19.1624 13.352 18.7152H13.3508Z" fill="url(#paint0_linear_1039_2160)"/>
<path d="M15.8017 10.124V7.84032C15.8017 5.77574 14.1175 4.10185 12.0407 4.10185C9.96393 4.10185 8.2804 5.7751 8.2804 7.84032V10.124H6.38867V7.59679C6.38867 4.50602 8.90883 2 12.0169 2C13.5784 2 14.9914 2.62908 16.0157 3.64627C17.0386 4.66345 17.6716 6.0694 17.6716 7.62185V10.124H15.8023H15.8017Z" fill="#AAB7EE"/>
</g>
<defs>
<filter id="filter0_in_1039_2160" x="4.40039" y="2" width="15.293" height="21" filterUnits="userSpaceOnUse" color-interpolation-filters="sRGB">
<feFlood flood-opacity="0" result="BackgroundImageFix"/>
<feBlend mode="normal" in="SourceGraphic" in2="BackgroundImageFix" result="shape"/>
<feColorMatrix in="SourceAlpha" type="matrix" values="0 0 0 0 0 0 0 0 0 0 0 0 0 0 0 0 0 0 127 0" result="hardAlpha"/>
<feOffset dy="1"/>
<feGaussianBlur stdDeviation="0.5"/>
<feComposite in2="hardAlpha" operator="arithmetic" k2="-1" k3="1"/>
<feColorMatrix type="matrix" values="0 0 0 0 1 0 0 0 0 1 0 0 0 0 1 0 0 0 0.4 0"/>
<feBlend mode="normal" in2="shape" result="effect1_innerShadow_1039_2160"/>
<feTurbulence type="fractalNoise" baseFrequency="10 10" stitchTiles="stitch" numOctaves="3" result="noise" seed="6543" />
<feColorMatrix in="noise" type="luminanceToAlpha" result="alphaNoise" />
<feComponentTransfer in="alphaNoise" result="coloredNoise1">
<feFuncA type="discrete" tableValues="1 1 1 1 1 1 1 1 1 1 1 1 1 1 1 1 1 1 1 1 1 1 1 1 1 1 1 1 1 1 1 1 1 1 1 1 1 1 1 1 1 1 1 1 1 1 1 1 1 1 1 0 0 0 0 0 0 0 0 0 0 0 0 0 0 0 0 0 0 0 0 0 0 0 0 0 0 0 0 0 0 0 0 0 0 0 0 0 0 0 0 0 0 0 0 0 0 0 0 0 "/>
</feComponentTransfer>
<feComposite operator="in" in2="effect1_innerShadow_1039_2160" in="coloredNoise1" result="noise1Clipped" />
<feFlood flood-color="rgba(0, 0, 0, 0.12)" result="color1Flood" />
<feComposite operator="in" in2="noise1Clipped" in="color1Flood" result="color1" />
<feMerge result="effect2_noise_1039_2160">
<feMergeNode in="effect1_innerShadow_1039_2160" />
<feMergeNode in="color1" />
</feMerge>
</filter>
<linearGradient id="paint0_linear_1039_2160" x1="12.047" y1="22" x2="12.047" y2="10.124" gradientUnits="userSpaceOnUse">
<stop stop-color="#F5AD7B"/>
<stop offset="1" stop-color="#FFECB4"/>
</linearGradient>
</defs>
</svg>
