<svg width="24" height="24" viewBox="0 0 24 24" fill="none" xmlns="http://www.w3.org/2000/svg">
<g clip-path="url(#clip0_921_5449)">
<g filter="url(#filter0_in_921_5449)">
<path d="M12.0002 6.77148C14.8568 6.77148 17.1986 9.11741 17.1986 11.9802C17.1986 14.8431 14.8568 17.189 12.0002 17.189C9.1436 17.189 6.80176 14.8431 6.80176 11.9802C6.80176 9.11741 9.1436 6.77148 12.0002 6.77148ZM14.7782 12.02C14.7782 10.4693 13.509 9.23669 12.0002 9.23669C10.4913 9.23669 9.22219 10.5091 9.22219 12.02C9.22219 13.5309 10.4913 14.8431 12.0002 14.8431C13.5483 14.8033 14.7782 13.5707 14.7782 12.02Z" fill="#969EB3"/>
</g>
<g filter="url(#filter1_in_921_5449)">
<path d="M22 11.0656V12.9742C22 13.4513 21.6424 13.8489 21.167 13.8887L19.7367 13.9682C19.5403 14.7237 19.2613 15.4394 18.8644 16.0755L19.8153 17.1889C20.1336 17.5467 20.0943 18.0636 19.776 18.4215L18.4283 19.7734C18.11 20.0915 17.556 20.1312 17.1984 19.8131L16.0864 18.8588C15.4499 19.2565 14.7387 19.5348 13.9843 19.7336L13.8664 21.165C13.8271 21.6421 13.4302 22 12.9548 22H11.0491C10.5737 22 10.1768 21.6421 10.1375 21.165L10.0196 19.6938C9.2652 19.495 8.55008 19.2167 7.91746 18.8191L6.84477 19.8131C6.48721 20.1312 5.97247 20.0915 5.61491 19.7734L4.26717 18.4215C3.9489 18.1034 3.9096 17.5467 4.22787 17.1889L5.17876 16.0755C4.7819 15.4394 4.50292 14.7237 4.30646 13.9682L2.83691 13.8489C2.36147 13.8091 2.00391 13.4115 2.00391 12.9344V11.0656C2.00391 10.5885 2.36147 10.1909 2.83691 10.1511L4.26717 10.0318C4.46363 9.27634 4.74261 8.56064 5.13947 7.92445L4.18858 6.81113C3.87031 6.45328 3.9096 5.93638 4.22787 5.57853L5.57562 4.22664C5.89389 3.90855 6.44791 3.86879 6.80548 4.18688L7.91746 5.14115C8.554 4.74354 9.2652 4.46521 10.0196 4.2664L10.1375 2.83499C10.1768 2.35785 10.5737 2 11.0491 2H12.9548C13.4302 2 13.8271 2.35785 13.8664 2.83499L13.9843 4.2664C14.7387 4.46521 15.4538 4.74354 16.0864 5.14115L17.1984 4.18688C17.556 3.86879 18.0707 3.90855 18.4283 4.22664L19.776 5.57853C20.0943 5.89662 20.1336 6.45328 19.8153 6.81113L18.8644 7.92445C19.2613 8.56064 19.5403 9.27634 19.7367 10.0318L21.2063 10.1511C21.6424 10.1909 22 10.5885 22 11.0656ZM17.1984 12.0199C17.1984 9.15706 14.8566 6.81113 12 6.81113C9.1434 6.81113 6.80155 9.15706 6.80155 12.0199C6.80155 14.8827 9.1434 17.2286 12 17.2286C14.8566 17.2286 17.1984 14.8827 17.1984 12.0199Z" fill="#C3CBDD"/>
</g>
</g>
<defs>
<filter id="filter0_in_921_5449" x="6.80176" y="6.77148" width="10.3965" height="11.4175" filterUnits="userSpaceOnUse" color-interpolation-filters="sRGB">
<feFlood flood-opacity="0" result="BackgroundImageFix"/>
<feBlend mode="normal" in="SourceGraphic" in2="BackgroundImageFix" result="shape"/>
<feColorMatrix in="SourceAlpha" type="matrix" values="0 0 0 0 0 0 0 0 0 0 0 0 0 0 0 0 0 0 127 0" result="hardAlpha"/>
<feOffset dy="1"/>
<feGaussianBlur stdDeviation="0.5"/>
<feComposite in2="hardAlpha" operator="arithmetic" k2="-1" k3="1"/>
<feColorMatrix type="matrix" values="0 0 0 0 1 0 0 0 0 1 0 0 0 0 1 0 0 0 0.4 0"/>
<feBlend mode="normal" in2="shape" result="effect1_innerShadow_921_5449"/>
<feTurbulence type="fractalNoise" baseFrequency="10 10" stitchTiles="stitch" numOctaves="3" result="noise" seed="1570" />
<feColorMatrix in="noise" type="luminanceToAlpha" result="alphaNoise" />
<feComponentTransfer in="alphaNoise" result="coloredNoise1">
<feFuncA type="discrete" tableValues="1 1 1 1 1 1 1 1 1 1 1 1 1 1 1 1 1 1 1 1 1 1 1 1 1 1 1 1 1 1 1 1 1 1 1 1 1 1 1 1 1 1 1 1 1 1 1 1 1 1 1 0 0 0 0 0 0 0 0 0 0 0 0 0 0 0 0 0 0 0 0 0 0 0 0 0 0 0 0 0 0 0 0 0 0 0 0 0 0 0 0 0 0 0 0 0 0 0 0 0 "/>
</feComponentTransfer>
<feComposite operator="in" in2="effect1_innerShadow_921_5449" in="coloredNoise1" result="noise1Clipped" />
<feFlood flood-color="rgba(0, 0, 0, 0.12)" result="color1Flood" />
<feComposite operator="in" in2="noise1Clipped" in="color1Flood" result="color1" />
<feMerge result="effect2_noise_921_5449">
<feMergeNode in="effect1_innerShadow_921_5449" />
<feMergeNode in="color1" />
</feMerge>
</filter>
<filter id="filter1_in_921_5449" x="2.00391" y="2" width="19.9961" height="21" filterUnits="userSpaceOnUse" color-interpolation-filters="sRGB">
<feFlood flood-opacity="0" result="BackgroundImageFix"/>
<feBlend mode="normal" in="SourceGraphic" in2="BackgroundImageFix" result="shape"/>
<feColorMatrix in="SourceAlpha" type="matrix" values="0 0 0 0 0 0 0 0 0 0 0 0 0 0 0 0 0 0 127 0" result="hardAlpha"/>
<feOffset dy="1"/>
<feGaussianBlur stdDeviation="0.5"/>
<feComposite in2="hardAlpha" operator="arithmetic" k2="-1" k3="1"/>
<feColorMatrix type="matrix" values="0 0 0 0 1 0 0 0 0 1 0 0 0 0 1 0 0 0 0.4 0"/>
<feBlend mode="normal" in2="shape" result="effect1_innerShadow_921_5449"/>
<feTurbulence type="fractalNoise" baseFrequency="10 10" stitchTiles="stitch" numOctaves="3" result="noise" seed="1570" />
<feColorMatrix in="noise" type="luminanceToAlpha" result="alphaNoise" />
<feComponentTransfer in="alphaNoise" result="coloredNoise1">
<feFuncA type="discrete" tableValues="1 1 1 1 1 1 1 1 1 1 1 1 1 1 1 1 1 1 1 1 1 1 1 1 1 1 1 1 1 1 1 1 1 1 1 1 1 1 1 1 1 1 1 1 1 1 1 1 1 1 1 0 0 0 0 0 0 0 0 0 0 0 0 0 0 0 0 0 0 0 0 0 0 0 0 0 0 0 0 0 0 0 0 0 0 0 0 0 0 0 0 0 0 0 0 0 0 0 0 0 "/>
</feComponentTransfer>
<feComposite operator="in" in2="effect1_innerShadow_921_5449" in="coloredNoise1" result="noise1Clipped" />
<feFlood flood-color="rgba(0, 0, 0, 0.12)" result="color1Flood" />
<feComposite operator="in" in2="noise1Clipped" in="color1Flood" result="color1" />
<feMerge result="effect2_noise_921_5449">
<feMergeNode in="effect1_innerShadow_921_5449" />
<feMergeNode in="color1" />
</feMerge>
</filter>
<clipPath id="clip0_921_5449">
<rect width="20" height="20" fill="white" transform="translate(2 2)"/>
</clipPath>
</defs>
</svg>
