<svg width="24" height="24" viewBox="0 0 24 24" fill="none" xmlns="http://www.w3.org/2000/svg">
<g clip-path="url(#clip0_843_267)">
<path d="M19.3096 9.10848L11.5964 18.9671L4.70752 9.10848L10.5165 5.47542C11.5302 4.82794 12.8311 4.84265 13.8297 5.5133L19.3096 9.10848Z" fill="#471E67"/>
<path d="M18.6837 8.95845H5.3163C4.58933 8.95845 4 9.54778 4 10.2747V18.545C4 19.272 4.58933 19.8613 5.3163 19.8613H18.6837C19.4107 19.8613 20 19.272 20 18.545V10.2747C20 9.54778 19.4107 8.95845 18.6837 8.95845Z" fill="#471E67"/>
<path d="M18.1352 10.0909H5.87668C5.23947 10.0909 4.7229 10.6075 4.7229 11.2447V18.1405C4.7229 18.7778 5.23947 19.2943 5.87668 19.2943H18.1352C18.7724 19.2943 19.2889 18.7778 19.2889 18.1405V11.2447C19.2889 10.6075 18.7724 10.0909 18.1352 10.0909Z" fill="white"/>
<path d="M19.5359 9.26952C19.8194 9.51108 19.9999 9.87141 19.9999 10.2744V18.5446C19.9999 19.2715 19.4142 19.8609 18.692 19.8609H5.40995C5.01653 19.8609 4.66466 19.6852 4.42456 19.4083L19.5359 9.26952Z" fill="#6C4B85"/>
<path d="M4.46695 9.26988C4.18163 9.51145 4 9.87178 4 10.2748V18.545C4 19.2719 4.58939 19.8613 5.3163 19.8613H18.6837C19.0797 19.8613 19.4341 19.6855 19.6753 19.4087L4.46695 9.26988Z" fill="#9881AA"/>
</g>
<defs>
<clipPath id="clip0_843_267">
<rect width="16" height="14.8609" fill="white" transform="translate(4 5)"/>
</clipPath>
</defs>
</svg>
