<svg width="23" height="24" viewBox="0 0 23 24" fill="none" xmlns="http://www.w3.org/2000/svg">
<rect width="22.08" height="24" rx="3.84" fill="url(#paint0_linear_916_5382)"/>
<path d="M18.8094 5.85816C18.8094 6.41049 18.3608 6.85839 17.8091 6.85839H3.88012C3.32779 6.85839 2.87988 6.40986 2.87988 5.85816V5.80028C2.87988 5.24795 3.32841 4.80005 3.88012 4.80005H17.8085C18.3608 4.80005 18.8087 5.24858 18.8087 5.80028L18.8094 5.85816Z" fill="#FFF4F9"/>
<path d="M18.8094 11.6179C18.8094 12.1703 18.3608 12.6182 17.8091 12.6182H3.88012C3.32779 12.6182 2.87988 12.1696 2.87988 11.6179V11.56C2.87988 11.0077 3.32841 10.5598 3.88012 10.5598H17.8085C18.3608 10.5598 18.8087 11.0083 18.8087 11.56L18.8094 11.6179Z" fill="#FFF4F9"/>
<path d="M11.5199 17.3071C11.5199 17.8223 11.2766 18.2401 10.9774 18.2401H3.4224C3.12282 18.2401 2.87988 17.8217 2.87988 17.3071V17.2531C2.87988 16.7379 3.12316 16.3201 3.4224 16.3201H10.977C11.2766 16.3201 11.5195 16.7385 11.5195 17.2531L11.5199 17.3071Z" fill="#FFF4F9"/>
<defs>
<linearGradient id="paint0_linear_916_5382" x1="11.04" y1="0" x2="11.04" y2="24" gradientUnits="userSpaceOnUse">
<stop stop-color="#E3C2EB"/>
<stop offset="1" stop-color="#AE8DCD"/>
</linearGradient>
</defs>
</svg>
